<svg xmlns="http://www.w3.org/2000/svg" version="1.1" width="130" height="60">

    <rect width='130.0px' stroke-width='1.0' fill='rgb(175, 255, 255)' stroke='rgb(51, 51, 51)' look='allInOne'
          height='60.0px'/>
    <g transform='translate(109.0,4.0)'>
        <svg xmlns="http://www.w3.org/2000/svg" height="16.0" version="1.1" viewBox="0 0 160 160" width="16.0">
            <line fill="none" look="border" stroke="#333333" stroke-miterlimit="10" stroke-width="10" x1="0" x2="59.5"
                  y1="80" y2="80"/>
            <path d="M106.667,128.334c-26.651,0-48.334-21.683-48.334-48.334s21.683-48.333,48.334-48.333S155,53.348,155,80   S133.318,128.334,106.667,128.334z"
                  fill="#afffff" look="background"/>
            <path d="M106.667,36.667C130.561,36.667,150,56.106,150,80s-19.439,43.333-43.333,43.333S63.333,103.894,63.333,80   S82.773,36.667,106.667,36.667 M106.667,26.667c-29.455,0-53.333,23.878-53.333,53.333c0,29.455,23.878,53.333,53.333,53.333   C136.122,133.333,160,109.455,160,80C160,50.545,136.122,26.667,106.667,26.667L106.667,26.667z"
                  fill="#333333" look="border" stroke="none"/>
        </svg>
    </g>

</svg>