<svg xmlns="http://www.w3.org/2000/svg" version="1.1" width="130" height="60">

    <rect rx='10.0' ry='10.0' width='130.0px' stroke-width='1.0' fill='rgb(175, 255, 255)' stroke='rgb(51, 51, 51)'
          look='allInOne' height='60.0px'/>
    <g transform='translate(109.0,4.0)'>
        <svg xmlns="http://www.w3.org/2000/svg" height="16.0" version="1.1" viewBox="0 0 160 160" width="16.0">
            <path d="M69.352,130.974c-25.883-2.521-46.179-24.402-46.179-50.937s20.296-48.416,46.179-50.937V130.974z"
                  fill="#afffff" look="background"/>
            <path d="M64.351,34.949v45.088v45.088c-20.671-4.582-36.178-23.058-36.178-45.088S43.68,39.531,64.351,34.949 M74.351,23.859   c-31.027,0-56.178,25.152-56.178,56.178s25.152,56.178,56.178,56.178V80.037V23.859L74.351,23.859z"
                  fill="#333333" look="border" stroke="none"/>
            <path d="M90.648,29.101c25.883,2.521,46.179,24.402,46.179,50.937s-20.296,48.416-46.179,50.937V29.101z"
                  fill="#afffff" look="background"/>
            <path d="M95.649,34.949c20.671,4.582,36.178,23.058,36.178,45.088s-15.507,40.506-36.178,45.088V80.037V34.949 M85.649,23.859   v56.178v56.178c31.026,0,56.178-25.152,56.178-56.178S116.675,23.859,85.649,23.859L85.649,23.859z"
                  fill="#333333" look="border" stroke="none"/>
        </svg>
    </g>
</svg>