<svg version="1.1" xmlns="http://www.w3.org/2000/svg" xmlns:xlink="http://www.w3.org/1999/xlink" width="130" height="60"
     preserveAspectRatio="none">
    <rect width='130.0px' stroke-width='1.0' fill='rgb(255, 255, 175)' stroke='rgb(51, 51, 51)' look='allInOne'
          height='60.0px'/>
    <g transform='translate(109.0,4.0)'>
        <svg xmlns="http://www.w3.org/2000/svg" height="16.0" version="1.1" viewBox="0 0 160 160" width="16.0">
            <path d="M80,60.5c-15.302,0-27.75-12.449-27.75-27.75S64.698,5,80,5s27.75,12.449,27.75,27.75     S95.302,60.5,80,60.5z"
                  fill="#ffffaf" look="background"/>
            <path d="M80,10c12.544,0,22.75,10.206,22.75,22.75S92.544,55.5,80,55.5S57.25,45.294,57.25,32.75S67.456,10,80,10 M80,0     C61.913,0,47.25,14.663,47.25,32.75S61.913,65.5,80,65.5s32.75-14.663,32.75-32.75S98.087,0,80,0L80,0z"
                  fill="#333333" look="border" stroke="none"/>
            <line fill="none" look="border" stroke="#333333" stroke-miterlimit="10" stroke-width="10" x1="80" x2="80"
                  y1="59.75" y2="113.79"/>
            <line fill="none" look="border" stroke="#333333" stroke-miterlimit="10" stroke-width="10" x1="38.069"
                  x2="121.931" y1="80.037" y2="80.037"/>
            <line fill="none" look="border" stroke="#333333" stroke-miterlimit="10" stroke-width="10" x1="80.005"
                  x2="53.056" y1="109.424" y2="163"/>
            <line fill="none" look="border" stroke="#333333" stroke-miterlimit="10" stroke-width="10" x1="79.815"
                  x2="106.765" y1="109.424" y2="163"/>
        </svg>
    </g>

</svg>