<svg xmlns="http://www.w3.org/2000/svg" version="1.1" width="130" height="60">

    <path d='M 0 0 H 130.0 V 49.6 C 65.0,18.4 65.0,80.8 0,49.6Z' stroke-width='1.0' fill='rgb(224, 255, 224)'
          stroke='rgb(51, 51, 51)' look='allInOne'/>
    <g transform='translate(109.0,4.0)'>
        <svg xmlns="http://www.w3.org/2000/svg" height="16.0" version="1.1" viewBox="0 0 160 160" width="16.0">
            <g>
                <path d="M80,133.23c-14.218,0-27.585-5.537-37.64-15.591c-20.754-20.755-20.754-54.524,0-75.279   C52.415,32.306,65.782,26.77,80,26.77s27.585,5.536,37.64,15.59c20.754,20.755,20.754,54.524,0,75.279   C107.585,127.693,94.218,133.23,80,133.23z"
                      fill="#e0ffe0" look="background"/>
                <path d="M80,31.77c12.883,0,24.994,5.017,34.104,14.126c9.11,9.109,14.126,21.221,14.126,34.104   c0,12.883-5.017,24.995-14.126,34.104c-9.11,9.109-21.221,14.126-34.104,14.126c-12.883,0-24.995-5.017-34.104-14.126   c-18.805-18.805-18.805-49.403,0-68.208C55.005,36.786,67.117,31.77,80,31.77 M80,21.77c-14.902,0-29.805,5.685-41.175,17.055   c-22.74,22.74-22.74,59.61,0,82.35C50.195,132.545,65.098,138.23,80,138.23c14.903,0,29.805-5.685,41.175-17.055   c22.74-22.74,22.74-59.61,0-82.35C109.805,27.455,94.903,21.77,80,21.77L80,21.77z"
                      fill="#333333" look="border" stroke="none"/>
            </g>
            <g>
                <line fill="none" look="border" stroke="#333333" stroke-miterlimit="10" stroke-width="10" x1="0"
                      x2="160" y1="60.5" y2="60.5"/>
                <line fill="none" look="border" stroke="#333333" stroke-miterlimit="10" stroke-width="10" x1="0"
                      x2="160" y1="99.5" y2="99.5"/>
            </g>
        </svg>
    </g>

</svg>