<svg xmlns="http://www.w3.org/2000/svg" version="1.1" width="130" height="60">

    <rect width='130.0px' stroke-width='1.0' fill='rgb(255, 190, 127)' stroke='rgb(51, 51, 51)' look='allInOne'
          height='60.0px'/>
    <g transform='translate(109.0,4.0)'>
        <svg xmlns="http://www.w3.org/2000/svg" height="16.0" version="1.1" viewBox="0 0 160 160" width="16.0">
            <path d="M79.997,154.799c-9.934-5.488-57.368-61.239-57.368-92.391C22.629,30.773,48.365,5.037,80,5.037   s57.371,25.736,57.371,57.371c0,13.161-9.358,33.903-25.675,56.908C97.415,139.452,84.202,152.404,79.997,154.799z"
                  fill="#ffbe7f" look="background"/>
            <path d="M80,10.037c28.877,0,52.371,23.494,52.371,52.371c0,11.831-8.652,30.994-23.739,52.575   c-11.707,16.747-23.002,28.851-28.605,33.586c-5.614-4.79-17.085-17.091-28.632-33.595C36.292,93.387,27.629,74.227,27.629,62.408   C27.629,33.531,51.123,10.037,80,10.037 M80,0.037c-34.447,0-62.371,27.924-62.371,62.371c0,34.447,53.916,97.629,62.371,97.629   c8.552,0,62.371-63.182,62.371-97.629C142.371,27.962,114.447,0.037,80,0.037L80,0.037z"
                  fill="#333333" look="border" stroke="none"/>
        </svg>
    </g>

</svg>