<svg xmlns="http://www.w3.org/2000/svg" version="1.1" width="130" height="60">

    <polygon stroke-width='1.0' fill='rgb(203, 203, 255)' stroke='rgb(51, 51, 51)' look='allInOne'
             points='5.0,0.0 125.0,0.0 130.0,5.0 130.0,55.0 125.0,60.0 5.0,60.0 0.0,55.0 0.0,5.0'/>
    <g transform='translate(109.0,4.0)'>
        <svg xmlns="http://www.w3.org/2000/svg" height="16.0" id="Layer_1" version="1.1" viewBox="0 0 160 160"
             width="16.0">
            <path d="M57.737,154.481c-28.817,0-52.263-23.445-52.263-52.263S28.92,49.955,57.737,49.955S110,73.4,110,102.218   S86.555,154.481,57.737,154.481z"
                  fill="#cbcbff" look="background"/>
            <path d="M57.737,54.955c26.061,0,47.263,21.202,47.263,47.263c0,26.061-21.202,47.263-47.263,47.263   c-26.061,0-47.263-21.202-47.263-47.263C10.475,76.157,31.677,54.955,57.737,54.955 M57.737,44.955   c-31.625,0-57.263,25.637-57.263,57.263c0,31.625,25.637,57.263,57.263,57.263c31.625,0,57.263-25.637,57.263-57.263   C115,70.592,89.363,44.955,57.737,44.955L57.737,44.955z"
                  fill="#333333" look="border" stroke="none"/>
            <circle cx="57.737" cy="102.218" fill="#333333" look="border" r="13.004" stroke="none"/>
            <path d="M58.095,76.061c14.423,0,26.157,11.734,26.157,26.157s-11.734,26.157-26.157,26.157s-26.157-11.734-26.157-26.157    S43.672,76.061,58.095,76.061 M58.095,66.061c-19.969,0-36.157,16.188-36.157,36.157s16.188,36.157,36.157,36.157    s36.157-16.188,36.157-36.157S78.064,66.061,58.095,66.061L58.095,66.061z"
                  fill="#333333" look="border" stroke="none"/>
            <g>
                <line look="border" stroke="#333333" stroke-miterlimit="10" stroke-width="10" x1="148.928" x2="62.739"
                      y1="11.001" y2="96.259"/>
                <polyline fill="none" look="border" points="124.698,0.376 124.698,34.77   160.019,34.77  "
                          stroke="#333333" stroke-miterlimit="10" stroke-width="10"/>
                <polygon fill="#333333" look="border" points="98.895,101.848 58.546,101.848 58.546,61.5" stroke="none"/>
            </g>
        </svg>
    </g>

</svg>