<svg xmlns="http://www.w3.org/2000/svg" version="1.1" width="130" height="60">

    <polygon stroke-width='1.0' fill='rgb(203, 203, 255)' stroke='rgb(51, 51, 51)' look='allInOne'
             points='5.0,0.0 125.0,0.0 130.0,5.0 130.0,55.0 125.0,60.0 5.0,60.0 0.0,55.0 0.0,5.0'/>
    <g transform='translate(109.0,4.0)'>
        <svg xmlns="http://www.w3.org/2000/svg" height="16.0" id="Layer_1" version="1.1" viewBox="0 0 160 160"
             width="16.0">
            <g>
                <path d="M16.266,154.946c-5.682,0-10.305-4.623-10.305-10.305V15.358c0-5.682,4.623-10.305,10.305-10.305h129.283   c5.682,0,10.305,4.623,10.305,10.305v129.283c0,5.682-4.623,10.305-10.305,10.305H16.266z"
                      fill="#cbcbff" look="background"/>
                <path d="M145.549,10.054c2.925,0,5.305,2.38,5.305,5.305v129.283c0,2.925-2.38,5.305-5.305,5.305H16.266   c-2.925,0-5.305-2.38-5.305-5.305V15.359c0-2.925,2.38-5.305,5.305-5.305H145.549 M145.549,0.054H16.266   c-8.453,0-15.305,6.852-15.305,15.305v129.283c0,8.453,6.852,15.305,15.305,15.305h129.283c8.453,0,15.305-6.852,15.305-15.305   V15.359C160.854,6.906,154.001,0.054,145.549,0.054L145.549,0.054z"
                      fill="#333333" look="border" stroke="none"/>
            </g>
            <line look="border" stroke="#333333" stroke-miterlimit="10" stroke-width="10" x1="80.907" x2="80.907"
                  y1="117.087" y2="20.781"/>
            <line look="border" stroke="#333333" stroke-miterlimit="10" stroke-width="10" x1="80.907" x2="80.907"
                  y1="140.888" y2="128.496"/>
        </svg>
    </g>

</svg>