<svg xmlns="http://www.w3.org/2000/svg" version="1.1" width="130" height="60">

    <polygon stroke-width='1.0' fill='rgb(203, 203, 255)' stroke='rgb(51, 51, 51)' look='allInOne'
             points='5.0,0.0 125.0,0.0 130.0,5.0 130.0,55.0 125.0,60.0 5.0,60.0 0.0,55.0 0.0,5.0'/>
    <g transform='translate(109.0,4.0)'>
        <svg xmlns="http://www.w3.org/2000/svg" height="16.0" version="1.1" viewBox="0 0 160 160" width="16.0">
            <path d="M79.501,154.943c-41.355,0-75-33.645-75-75s33.645-75,75-75s75,33.645,75,75   S120.856,154.943,79.501,154.943z"
                  fill="#cbcbff" look="background"/>
            <path d="M79.501,9.943c38.598,0,70,31.402,70,70c0,38.598-31.402,70-70,70s-70-31.402-70-70   C9.501,41.345,40.902,9.943,79.501,9.943 M79.501-0.057c-44.183,0-80,35.817-80,80s35.817,80,80,80s80-35.817,80-80   S123.683-0.057,79.501-0.057L79.501-0.057z"
                  fill="#333333" look="border" stroke="none"/>
            <circle cx="79.501" cy="79.943" fill="#333333" look="border" r="18.168" stroke="none"/>
            <path d="M80,39.429c22.339,0,40.514,18.174,40.514,40.514S102.339,120.457,80,120.457s-40.514-18.174-40.514-40.514    S57.661,39.429,80,39.429 M80,29.429c-27.898,0-50.514,22.616-50.514,50.514c0,27.898,22.616,50.514,50.514,50.514    s50.514-22.616,50.514-50.514C130.514,52.045,107.898,29.429,80,29.429L80,29.429z"
                  fill="#333333" look="border" stroke="none"/>

        </svg>
    </g>

</svg>