<svg xmlns="http://www.w3.org/2000/svg" version="1.1" width="130" height="60">

    <polygon stroke-width='1.0' fill='rgb(203, 203, 255)' stroke='rgb(51, 51, 51)' look='allInOne'
             points='5.0,0.0 125.0,0.0 130.0,5.0 130.0,55.0 125.0,60.0 5.0,60.0 0.0,55.0 0.0,5.0'/>
    <g transform='translate(109.0,4.0)'>
        <svg xmlns="http://www.w3.org/2000/svg" height="16.0" version="1.1" viewBox="0 0 160 160" width="16.0">

            <line look="border" stroke="#333333" stroke-miterlimit="10" stroke-width="10" x1="-0.237" x2="65.174"
                  y1="160.18" y2="94.769"/>
            <path d="M101.588,111.585c-14.218,0-27.585-5.536-37.64-15.59c-20.754-20.755-20.754-54.524,0-75.28    C74.003,10.661,87.37,5.124,101.588,5.124c14.219,0,27.586,5.537,37.641,15.591c20.754,20.756,20.754,54.525,0,75.28    C129.174,106.049,115.807,111.585,101.588,111.585z"
                  fill="#cbcbff" look="background"/>
            <path d="M101.588,10.125c12.883,0,24.995,5.017,34.104,14.126c18.805,18.805,18.805,49.403,0,68.208    c-9.11,9.11-21.221,14.126-34.104,14.126c-12.883,0-24.995-5.017-34.104-14.126c-9.109-9.11-14.126-21.221-14.126-34.104    c0-12.883,5.017-24.995,14.126-34.104C76.594,15.141,88.705,10.125,101.588,10.125 M101.588,0.125    c-14.902,0-29.805,5.685-41.175,17.055c-22.74,22.74-22.74,59.61,0,82.35c11.37,11.37,26.273,17.055,41.175,17.055    s29.805-5.685,41.175-17.055c22.74-22.74,22.74-59.61,0-82.35C131.393,5.81,116.491,0.125,101.588,0.125L101.588,0.125z"
                  fill="#333333" look="border" stroke="none"/>
        </svg>
    </g>

</svg>