<svg xmlns="http://www.w3.org/2000/svg" version="1.1" width="130" height="60">

    <polygon stroke-width='1.0' fill='rgb(203, 203, 255)' stroke='rgb(51, 51, 51)' look='allInOne'
             points='5.0,0.0 125.0,0.0 130.0,5.0 130.0,55.0 125.0,60.0 5.0,60.0 0.0,55.0 0.0,5.0'/>
    <g transform='translate(109.0,4.0)'>
        <svg xmlns="http://www.w3.org/2000/svg" height="16.0" version="1.1" viewBox="0 0 160 160" width="16.0">
            <path d="M79.816,141.71c-34.059,0-61.767-27.708-61.767-61.767s27.708-61.767,61.767-61.767   s61.768,27.708,61.768,61.767S113.875,141.71,79.816,141.71z"
                  fill="#cbcbff" look="background"/>
            <path d="M79.817,23.176c31.301,0,56.767,25.466,56.767,56.767c0,31.301-25.466,56.767-56.767,56.767   c-31.302,0-56.767-25.466-56.767-56.767C23.05,48.642,48.515,23.176,79.817,23.176 M79.817,13.176   c-36.874,0-66.767,29.893-66.767,66.767c0,36.874,29.893,66.767,66.767,66.767s66.767-29.893,66.767-66.767   C146.584,43.069,116.691,13.176,79.817,13.176L79.817,13.176z"
                  fill="#333333" look="border" stroke="none"/>
            <line look="border" stroke="#333333" stroke-miterlimit="10" stroke-width="10" x1="79.817" x2="79.817"
                  y1="-0.057" y2="159.943"/>

            <line look="border" stroke="#333333" stroke-miterlimit="10" stroke-width="10" x1="159.817" x2="-0.183"
                  y1="79.943" y2="79.943"/>
            <line look="border" stroke="#333333" stroke-miterlimit="10" stroke-width="10" x1="136.385" x2="23.248"
                  y1="23.431" y2="136.569"/>

            <line look="border" stroke="#333333" stroke-miterlimit="10" stroke-width="10" x1="136.385" x2="23.248"
                  y1="136.569" y2="23.431"/>
        </svg>
    </g>

</svg>