<svg xmlns="http://www.w3.org/2000/svg" version="1.1" width="130" height="60">

    <polyline stroke-width='1.0' fill='rgb(175, 255, 175)' stroke='rgb(51, 51, 51)' look='allInOne'
              points='0.0,12.0 12.0,0.0 130.0,0.0 130.0,48.0 118.0,60.0'/>
    <line y1='0.0' x1='130.0' y2='12.0' x2='118.0' stroke-width='1.0' stroke='rgb(51, 51, 51)' look='border'/>
    <rect width='118.0px' y='12.0' stroke-width='1.0' fill='rgb(175, 255, 175)' stroke='rgb(51, 51, 51)' look='allInOne'
          height='48.0px'/>
    <g transform='translate(97.0,16.0)'>
        <svg xmlns="http://www.w3.org/2000/svg" height="16.0" id="Layer_1" version="1.1" viewBox="0 0 160 160"
             width="16.0">

            <polygon fill="#afffaf" look="background"
                     points="5,155 5,5.037 23.263,5.037 23.263,99.485 68.602,70.748 68.989,98.234 111.672,70.813    112.059,98.234 154.649,70.872 154.98,155"/>
            <path d="M18.263,10.037v80.36v18.178l15.354-9.732l30.111-19.086l0.135,9.545l0.254,18.006l15.15-9.734l27.532-17.689l0.133,9.416    l0.254,18.006l15.15-9.733l27.35-17.571L149.961,150H10V10.037H18.263 M28.263,0.037H0V160h160l-0.387-98.261L116.93,89.161    l-0.387-27.422L73.861,89.161l-0.387-27.422L28.263,90.397V0.037L28.263,0.037z"
                  fill="#333333" look="border" stroke="none"/>
        </svg>
    </g>

</svg>