<svg xmlns="http://www.w3.org/2000/svg" version="1.1" width="130" height="60">

    <rect rx='10.0' ry='10.0' width='130.0px' stroke-width='1.0' fill='rgb(175, 255, 175)' stroke='rgb(51, 51, 51)'
          look='allInOne' height='60.0px'/>
    <g transform='translate(109.0,4.0)'>
        <svg xmlns="http://www.w3.org/2000/svg" height="16.0" id="Layer_1" version="1.1" viewBox="0 0 160 160"
             width="16.0">
            <path d="M8.214,131.132l10.009-19.361c10.299-19.923,10.299-43.712,0-63.635L8.214,28.774h102.658   c13.776,0,26.394,6.81,33.751,18.217c12.215,18.936,13.734,39.862,4.17,57.413c-8.983,16.486-26.216,26.728-44.972,26.728H8.214z"
                  fill="#afffaf" look="background"/>
            <path d="M110.872,33.775c12.07,0,23.117,5.954,29.549,15.926c11.192,17.351,12.643,36.417,3.982,52.31   c-8.108,14.878-23.658,24.12-40.582,24.12H16.427l6.237-12.065c11.043-21.361,11.043-46.866,0-68.227l-6.237-12.065H110.872    M110.872,23.775H0l13.781,26.657c9.573,18.517,9.573,40.526,0,59.042L0,136.131h103.822c42.442,0,73.892-47.065,45.004-91.851   C140.533,31.426,126.169,23.775,110.872,23.775L110.872,23.775z"
                  fill="#333333" look="border" stroke="none"/>
        </svg>
    </g>

</svg>