<svg xmlns="http://www.w3.org/2000/svg" version="1.1" width="130" height="60">

    <polyline stroke-width='1.0' fill='rgb(175, 255, 175)' stroke='rgb(51, 51, 51)' look='allInOne'
              points='0.0,12.0 12.0,0.0 130.0,0.0 130.0,48.0 118.0,60.0'/>
    <line y1='0.0' x1='130.0' y2='12.0' x2='118.0' stroke-width='1.0' stroke='rgb(51, 51, 51)' look='border'/>
    <rect width='118.0px' y='12.0' stroke-width='1.0' fill='rgb(175, 255, 175)' stroke='rgb(51, 51, 51)' look='allInOne'
          height='48.0px'/>
    <g transform='translate(97.0,16.0)'>
        <svg xmlns="http://www.w3.org/2000/svg" height="16.0" id="Layer_1" version="1.1" viewBox="0 0 160 160"
             width="16.0">
            <g>
                <path d="M55.684,70.077c2.467,0,4.935,0.268,7.335,0.797l7.05,1.554l5.87,4.301   c2.621,1.921,4.957,4.196,6.942,6.764l4.435,5.737l1.722,7.019c0.386,1.574,0.663,3.185,0.823,4.787   c0.16,1.598,0.207,3.233,0.14,4.859l-0.295,7.214l-3.213,6.506c-1.437,2.909-3.275,5.602-5.465,8.004l-4.902,5.378l-6.603,2.918   c-2.956,1.306-6.089,2.186-9.312,2.616l-7.219,0.962l-6.918-2.018c-3.11-0.907-6.076-2.251-8.817-3.993l-6.134-3.899l-4.042-6.017   c-1.81-2.694-3.223-5.622-4.2-8.703l-2.192-6.911l0.781-7.207c0.348-3.213,1.154-6.363,2.394-9.361l2.772-6.699l5.24-5.036   c2.341-2.25,4.983-4.154,7.851-5.659l6.382-3.348l7.266-0.486C54.142,70.103,54.919,70.077,55.684,70.077 M49.569,49.018   l-17.626,4.958l3.138,11.157c-3.733,1.958-7.14,4.426-10.135,7.304l-9.588-6.54L5.043,81.025l9.58,6.534   c-1.579,3.817-2.638,7.885-3.096,12.107L0,100.819l1.821,18.219l11.527-1.152c1.284,4.048,3.128,7.826,5.431,11.256l-8.097,8.301   l13.106,12.786l8.104-8.307c3.506,2.228,7.334,3.972,11.38,5.153l-0.868,11.557L60.664,160l0.868-11.557   c4.248-0.566,8.283-1.724,12.033-3.381l6.763,9.409l14.868-10.687l-6.776-9.428c2.81-3.083,5.185-6.555,7.041-10.312l11.244,2.865   l4.519-17.744l-11.229-2.861c0.084-2.061,0.029-4.152-0.182-6.263c-0.211-2.111-0.57-4.171-1.062-6.175l10.441-5.026l-7.943-16.497   l-10.455,5.034c-2.563-3.315-5.577-6.248-8.943-8.715l4.777-10.582l-16.689-7.532l-4.767,10.561   c-3.069-0.676-6.246-1.031-9.487-1.031c-0.987,0-1.979,0.033-2.976,0.1L49.569,49.018L49.569,49.018z"
                      fill="#333333" look="border" stroke="none"/>
            </g>
            <g>
                <path d="M55.505,143.314c-20.012,0-36.605-15.041-38.6-34.985c-2.131-21.313,13.477-40.387,34.789-42.518   c1.301-0.13,2.618-0.196,3.916-0.196c20.014,0,36.608,15.041,38.602,34.985c1.032,10.325-2.018,20.434-8.589,28.465   c-6.57,8.03-15.876,13.021-26.2,14.053C58.122,143.249,56.804,143.314,55.505,143.314z"
                      fill="#afffaf" look="background"/>
                <path d="M55.612,70.615c17.433,0,31.889,13.105,33.626,30.483c1.856,18.57-11.742,35.189-30.312,37.045   c-1.136,0.114-2.286,0.171-3.419,0.171c-17.433,0-31.889-13.105-33.626-30.483c-1.856-18.57,11.742-35.189,30.312-37.045   C53.328,70.673,54.479,70.615,55.612,70.615 M55.612,60.615c-1.459,0-2.931,0.073-4.414,0.221   C27.102,63.245,9.521,84.73,11.93,108.826c2.26,22.613,21.323,39.488,43.576,39.488c1.459,0,2.931-0.073,4.414-0.221   c24.096-2.409,41.676-23.895,39.268-47.99C96.927,77.49,77.865,60.615,55.612,60.615L55.612,60.615z"
                      fill="#333333" look="border" stroke="none"/>
            </g>
            <g>
                <path d="M118.55,18.292c2.011,0,4.008,0.26,5.935,0.774l4.681,1.247l3.806,3.057   c1.711,1.374,3.214,2.972,4.466,4.749l2.811,3.988l0.938,4.737c0.214,1.082,0.353,2.174,0.413,3.245   c0.061,1.092,0.045,2.189-0.047,3.259l-0.416,4.847l-2.339,4.25c-1.054,1.915-2.369,3.671-3.91,5.219l-3.443,3.461l-4.519,1.764   c-2.021,0.789-4.148,1.287-6.321,1.48l-4.862,0.432l-4.588-1.559c-2.06-0.7-4.011-1.688-5.798-2.937l-4.004-2.798l-2.535-4.158   c-1.135-1.862-1.996-3.865-2.559-5.955l-1.267-4.704l0.735-4.815c0.327-2.141,0.959-4.226,1.879-6.198l2.06-4.417l3.668-3.228   c1.638-1.441,3.466-2.641,5.434-3.566l4.38-2.059l4.878-0.108C118.202,18.294,118.376,18.292,118.55,18.292 M115.834-0.114   l-13.289,3.116l1.971,8.412c-2.844,1.337-5.463,3.064-7.787,5.11l-6.927-5.184l-8.178,10.928l6.921,5.181   c-1.301,2.79-2.223,5.785-2.701,8.916l-8.623,0.481l0.761,13.629l8.623-0.481c0.823,3.056,2.074,5.932,3.677,8.561l-6.303,5.916   l9.342,9.952l6.31-5.921c2.538,1.774,5.331,3.197,8.308,4.208l-1.025,8.58l13.553,1.619l1.026-8.579   c3.182-0.283,6.224-1.014,9.072-2.126l4.73,7.229l11.422-7.472l-4.738-7.243c2.194-2.205,4.075-4.714,5.582-7.45l8.282,2.503   l3.945-13.068l-8.269-2.499c0.131-1.532,0.156-3.091,0.068-4.669c-0.088-1.579-0.289-3.127-0.588-4.633l7.941-3.404l-5.377-12.547   l-7.95,3.407c-1.801-2.554-3.952-4.835-6.377-6.783l3.904-7.724l-12.183-6.157l-3.896,7.709c-2.722-0.725-5.576-1.111-8.509-1.111   c-0.247,0-0.495,0.003-0.744,0.008L115.834-0.114L115.834-0.114z"
                      fill="#333333" look="border" stroke="none"/>
            </g>
            <g>
                <path d="M118.479,69.298c-15.027,0-27.537-12.229-27.886-27.261c-0.174-7.452,2.566-14.526,7.714-19.918   c5.147-5.393,12.086-8.457,19.539-8.63c0.221-0.006,0.442-0.008,0.662-0.008c15.027,0,27.537,12.229,27.886,27.261   c0.174,7.452-2.566,14.526-7.714,19.918c-5.147,5.393-12.086,8.457-19.539,8.63C118.921,69.296,118.699,69.298,118.479,69.298z"
                      fill="#afffaf" look="background"/>
                <path d="M118.511,18.481c6.003,0,11.679,2.313,15.984,6.513c4.311,4.206,6.762,9.84,6.902,15.863   c0.142,6.117-2.107,11.924-6.332,16.35c-4.225,4.426-9.921,6.942-16.039,7.084c-0.182,0.004-0.365,0.006-0.546,0.006   c-6.004,0-11.681-2.313-15.985-6.513c-4.311-4.206-6.762-9.84-6.902-15.863c-0.293-12.628,9.742-23.14,22.371-23.434   c0.182-0.004,0.365-0.006,0.546-0.006H118.511 M118.509,8.481c-0.258,0-0.519,0.003-0.779,0.009   c-18.17,0.422-32.557,15.493-32.135,33.663c0.416,17.91,15.064,32.145,32.884,32.145c0.258,0,0.519-0.003,0.779-0.009   c18.17-0.422,32.557-15.493,32.135-33.663C150.978,22.715,136.33,8.48,118.509,8.481L118.509,8.481z"
                      fill="#333333" look="border" stroke="none"/>
            </g>
        </svg>
    </g>

</svg>