<svg xmlns="http://www.w3.org/2000/svg" version="1.1" width="130" height="60">

    <polyline stroke-width='1.0' fill='rgb(175, 255, 175)' stroke='rgb(51, 51, 51)' look='allInOne'
              points='0.0,12.0 12.0,0.0 130.0,0.0 130.0,48.0 118.0,60.0'/>
    <line y1='0.0' x1='130.0' y2='12.0' x2='118.0' stroke-width='1.0' stroke='rgb(51, 51, 51)' look='border'/>
    <rect width='118.0px' y='12.0' stroke-width='1.0' fill='rgb(175, 255, 175)' stroke='rgb(51, 51, 51)' look='allInOne'
          height='48.0px'/>
    <g transform='translate(97.0,16.0)'>
        <svg xmlns="http://www.w3.org/2000/svg" height="16.0" version="1.1" viewBox="0 0 160 160" width="16.0">
            <path d="M15.305,117.939C9.623,117.939,5,113.315,5,107.633V25.887c0-5.683,4.623-10.306,10.305-10.306H144.48   c5.683,0,10.306,4.623,10.306,10.306v81.746c0,5.683-4.623,10.306-10.306,10.306H15.305z"
                  fill="#afffaf" look="background"/>
            <path d="M144.481,20.581c2.925,0,5.305,2.38,5.305,5.305v81.747c0,2.925-2.38,5.305-5.305,5.305H15.305   c-2.925,0-5.305-2.38-5.305-5.305V25.887c0-2.925,2.38-5.305,5.305-5.305H144.481 M144.481,10.581H15.305   C6.852,10.581,0,17.434,0,25.887v81.747c0,8.453,6.852,15.305,15.305,15.305h129.176c8.453,0,15.305-6.852,15.305-15.305V25.887   C159.786,17.434,152.934,10.581,144.481,10.581L144.481,10.581z"
                  fill="#333333" look="border" stroke="none"/>
            <polygon fill="#afffaf" look="background"
                     points="11.021,144.273 32.599,119.667 128.014,119.667 148.996,144.478  "/>
            <path d="M125.694,124.667l12.511,14.794l-116.163-0.172l12.823-14.622H125.694 M130.333,114.667h-100L0,149.256l159.786,0.237   L130.333,114.667L130.333,114.667z"
                  fill="#333333" look="border" stroke="none"/>
        </svg>
    </g>

</svg>