<svg xmlns="http://www.w3.org/2000/svg" version="1.1" width="130" height="60">

    <rect width='130.0px' stroke-width='1.0' fill='rgb(175, 255, 175)' stroke='rgb(51, 51, 51)' look='allInOne'
          height='60.0px'/>
    <g transform='translate(109.0,4.0)'>
        <svg xmlns="http://www.w3.org/2000/svg" height="16.0" version="1.1" viewBox="0 0 160 160" width="16.0">
            <g>
                <path d="M121.033,126.27c9.084-21.27,15.813-53.356-13.006-79.541C97.13,36.829,83.594,31.81,67.792,31.81   c-12.053,0-23.714,2.922-33.393,6.445C49.937,23.339,72.922,5.257,93.029,5.257c34.059,0,61.767,27.708,61.767,61.767   C154.796,87.231,136.232,110.558,121.033,126.27z"
                      fill="#afffaf" look="background"/>
                <path d="M93.029,10.256c31.301,0,56.767,25.466,56.767,56.767c0,11.795-7.482,25.494-17.018,38.05   c3.438-19.552,0.403-42.246-21.389-62.044C99.544,32.266,84.875,26.809,67.792,26.809c-4.715,0-9.368,0.424-13.877,1.146   C66.696,18.123,80.834,10.256,93.029,10.256 M93.029,0.256c-36.874,0-80.657,54.23-80.657,54.23s26.879-17.677,55.42-17.677   c12.703,0,25.735,3.502,36.873,13.621c45.582,41.413-4.504,97.851,0.054,97.851c0,0,55.077-44.384,55.077-81.258   S129.903,0.256,93.029,0.256L93.029,0.256z"
                      fill="#333333" look="border" stroke="none"/>
            </g>
            <g>
                <path d="M66.562,155.257c-34.059,0-61.767-27.709-61.767-61.768s27.708-61.767,61.767-61.767   c34.059,0,61.768,27.708,61.768,61.767S100.621,155.257,66.562,155.257z"
                      fill="#afffaf" look="background"/>
                <path d="M66.563,36.722c31.301,0,56.767,25.466,56.767,56.767s-25.466,56.767-56.767,56.767S9.796,124.791,9.796,93.489   S35.262,36.722,66.563,36.722 M66.563,26.722c-36.874,0-66.767,29.893-66.767,66.767s29.893,66.767,66.767,66.767   s66.767-29.893,66.767-66.767S103.437,26.722,66.563,26.722L66.563,26.722z"
                      fill="#333333" look="border" stroke="none"/>
            </g>
        </svg>
    </g>

</svg>